HIERARCHY
ROOT Hips
{
	OFFSET 0.000000 100.481300 0.000000
	CHANNELS 6 Xposition Yposition Zposition Xrotation Yrotation Zrotation
	JOINT Spine
	{
		OFFSET -0.279200 12.230698 -2.892100
		CHANNELS 3 Xrotation Yrotation Zrotation
		JOINT Spine1
		{
			OFFSET -0.325700 14.269203 -3.374200
			CHANNELS 3 Xrotation Yrotation Zrotation
			JOINT Spine2
			{
				OFFSET -0.372300 16.307602 -0.352600
				CHANNELS 3 Xrotation Yrotation Zrotation
				JOINT Neck
				{
					OFFSET -0.418800 17.814194 8.416900
					CHANNELS 3 Xrotation Yrotation Zrotation
					JOINT Head
					{
						OFFSET 0.000000 7.031097 3.806800
						CHANNELS 3 Xrotation Yrotation Zrotation
						JOINT HeadTop_End
						{
							OFFSET 0.000000 24.646606 12.978600
							CHANNELS 3 Xrotation Yrotation Zrotation
							End Site
							{
								OFFSET 0.000000 27.854965 0.000000
							}
						}
					}
				}
				JOINT LeftShoulder
				{
					OFFSET 16.952999 14.495407 -7.737500
					CHANNELS 3 Xrotation Yrotation Zrotation
					JOINT LeftArm
					{
						OFFSET 9.308998 -2.777710 0.208600
						CHANNELS 3 Xrotation Yrotation Zrotation
						JOINT LeftForeArm
						{
							OFFSET 29.972298 0.000000 0.000000
							CHANNELS 3 Xrotation Yrotation Zrotation
							JOINT LeftHand
							{
								OFFSET 26.026505 0.000000 0.000000
								CHANNELS 3 Xrotation Yrotation Zrotation
								JOINT LeftHandThumb1
								{
									OFFSET 12.240501 -7.147949 9.207150
									CHANNELS 3 Xrotation Yrotation Zrotation
									JOINT LeftHandThumb2
									{
										OFFSET 4.138618 -2.389435 2.389433
										CHANNELS 3 Xrotation Yrotation Zrotation
										JOINT LeftHandThumb3
										{
											OFFSET 2.726913 -1.574387 1.574386
											CHANNELS 3 Xrotation Yrotation Zrotation
											JOINT LeftHandThumb4
											{
												OFFSET 3.941010 -2.275345 2.275342
												CHANNELS 3 Xrotation Yrotation Zrotation
												End Site
												{
													OFFSET -0.005798 5.087799 0.009903
												}
											}
										}
									}
								}
								JOINT LeftHandIndex1
								{
									OFFSET 24.424698 -1.985611 5.953459
									CHANNELS 3 Xrotation Yrotation Zrotation
									JOINT LeftHandIndex2
									{
										OFFSET 6.426697 0.000000 0.000000
										CHANNELS 3 Xrotation Yrotation Zrotation
										JOINT LeftHandIndex3
										{
											OFFSET 5.337898 0.000000 0.000000
											CHANNELS 3 Xrotation Yrotation Zrotation
											JOINT LeftHandIndex4
											{
												OFFSET 4.409401 0.000000 0.000000
												CHANNELS 3 Xrotation Yrotation Zrotation
												End Site
												{
													OFFSET 0.000000 4.409363 0.014373
												}
											}
										}
									}
								}
								JOINT LeftHandMiddle1
								{
									OFFSET 23.810104 0.000000 0.000000
									CHANNELS 3 Xrotation Yrotation Zrotation
									JOINT LeftHandMiddle2
									{
										OFFSET 7.176498 0.000000 0.000000
										CHANNELS 3 Xrotation Yrotation Zrotation
										JOINT LeftHandMiddle3
										{
											OFFSET 6.774902 0.000000 0.000000
											CHANNELS 3 Xrotation Yrotation Zrotation
											JOINT LeftHandMiddle4
											{
												OFFSET 5.403328 0.000000 0.000000
												CHANNELS 3 Xrotation Yrotation Zrotation
												End Site
												{
													OFFSET -0.027702 5.403244 0.017414
												}
											}
										}
									}
								}
								JOINT LeftHandRing1
								{
									OFFSET 22.908401 -0.839279 -6.020567
									CHANNELS 3 Xrotation Yrotation Zrotation
									JOINT LeftHandRing2
									{
										OFFSET 6.337502 0.000000 0.000000
										CHANNELS 3 Xrotation Yrotation Zrotation
										JOINT LeftHandRing3
										{
											OFFSET 5.779297 0.000000 0.000000
											CHANNELS 3 Xrotation Yrotation Zrotation
											JOINT LeftHandRing4
											{
												OFFSET 4.965698 0.000000 0.000000
												CHANNELS 3 Xrotation Yrotation Zrotation
												End Site
												{
													OFFSET 0.000000 4.965668 0.016186
												}
											}
										}
									}
								}
								JOINT LeftHandPinky1
								{
									OFFSET 20.037003 -1.530319 -10.950146
									CHANNELS 3 Xrotation Yrotation Zrotation
									JOINT LeftHandPinky2
									{
										OFFSET 5.254700 0.000000 0.000000
										CHANNELS 3 Xrotation Yrotation Zrotation
										JOINT LeftHandPinky3
										{
											OFFSET 4.810204 0.000000 0.000000
											CHANNELS 3 Xrotation Yrotation Zrotation
											JOINT LeftHandPinky4
											{
												OFFSET 3.647202 0.000000 0.000000
												CHANNELS 3 Xrotation Yrotation Zrotation
												End Site
												{
													OFFSET 0.000000 3.647186 0.011889
												}
											}
										}
									}
								}
							}
						}
					}
				}
				JOINT RightShoulder
				{
					OFFSET -15.141001 14.495407 -7.737500
					CHANNELS 3 Xrotation Yrotation Zrotation
					JOINT RightArm
					{
						OFFSET -9.308998 -2.777710 0.208500
						CHANNELS 3 Xrotation Yrotation Zrotation
						JOINT RightForeArm
						{
							OFFSET -29.972300 0.000000 0.000000
							CHANNELS 3 Xrotation Yrotation Zrotation
							JOINT RightHand
							{
								OFFSET -26.026505 0.000000 0.000000
								CHANNELS 3 Xrotation Yrotation Zrotation
								JOINT RightHandThumb1
								{
									OFFSET -12.240601 -7.148026 9.207092
									CHANNELS 3 Xrotation Yrotation Zrotation
									JOINT RightHandThumb2
									{
										OFFSET -4.138618 -2.389435 2.389433
										CHANNELS 3 Xrotation Yrotation Zrotation
										JOINT RightHandThumb3
										{
											OFFSET -2.726974 -1.574417 1.574421
											CHANNELS 3 Xrotation Yrotation Zrotation
											JOINT RightHandThumb4
											{
												OFFSET -3.941010 -2.275345 2.275343
												CHANNELS 3 Xrotation Yrotation Zrotation
												End Site
												{
													OFFSET 0.005814 5.087799 0.009927
												}
											}
										}
									}
								}
								JOINT RightHandIndex1
								{
									OFFSET -24.424698 -1.985657 5.953444
									CHANNELS 3 Xrotation Yrotation Zrotation
									JOINT RightHandIndex2
									{
										OFFSET -6.426697 0.000000 0.000000
										CHANNELS 3 Xrotation Yrotation Zrotation
										JOINT RightHandIndex3
										{
											OFFSET -5.337898 0.000000 0.000000
											CHANNELS 3 Xrotation Yrotation Zrotation
											JOINT RightHandIndex4
											{
												OFFSET -4.409401 0.000000 0.000000
												CHANNELS 3 Xrotation Yrotation Zrotation
												End Site
												{
													OFFSET 0.000000 4.409363 0.014408
												}
											}
										}
									}
								}
								JOINT RightHandMiddle1
								{
									OFFSET -23.810097 0.000000 0.000000
									CHANNELS 3 Xrotation Yrotation Zrotation
									JOINT RightHandMiddle2
									{
										OFFSET -7.176498 0.000000 0.000000
										CHANNELS 3 Xrotation Yrotation Zrotation
										JOINT RightHandMiddle3
										{
											OFFSET -6.774902 0.000000 0.000000
											CHANNELS 3 Xrotation Yrotation Zrotation
											JOINT RightHandMiddle4
											{
												OFFSET -5.403328 0.000000 0.000000
												CHANNELS 3 Xrotation Yrotation Zrotation
												End Site
												{
													OFFSET 0.027702 5.403244 0.017457
												}
											}
										}
									}
								}
								JOINT RightHandRing1
								{
									OFFSET -22.908302 -0.839325 -6.020576
									CHANNELS 3 Xrotation Yrotation Zrotation
									JOINT RightHandRing2
									{
										OFFSET -6.337502 0.000000 0.000000
										CHANNELS 3 Xrotation Yrotation Zrotation
										JOINT RightHandRing3
										{
											OFFSET -5.779297 0.000000 0.000000
											CHANNELS 3 Xrotation Yrotation Zrotation
											JOINT RightHandRing4
											{
												OFFSET -4.965698 0.000000 0.000000
												CHANNELS 3 Xrotation Yrotation Zrotation
												End Site
												{
													OFFSET 0.000000 4.965668 0.016226
												}
											}
										}
									}
								}
								JOINT RightHandPinky1
								{
									OFFSET -20.037003 -1.530334 -10.950259
									CHANNELS 3 Xrotation Yrotation Zrotation
									JOINT RightHandPinky2
									{
										OFFSET -5.254700 0.000000 0.000000
										CHANNELS 3 Xrotation Yrotation Zrotation
										JOINT RightHandPinky3
										{
											OFFSET -4.810204 0.000000 0.000000
											CHANNELS 3 Xrotation Yrotation Zrotation
											JOINT RightHandPinky4
											{
												OFFSET -3.647202 0.000000 0.000000
												CHANNELS 3 Xrotation Yrotation Zrotation
												End Site
												{
													OFFSET 0.000000 3.647186 0.011917
												}
											}
										}
									}
								}
							}
						}
					}
				}
			}
		}
	}
	JOINT LeftUpLeg
	{
		OFFSET 15.427100 -6.655098 0.678600
		CHANNELS 3 Xrotation Yrotation Zrotation
		JOINT LeftLeg
		{
			OFFSET 4.081073 -39.591068 13.024000
			CHANNELS 3 Xrotation Yrotation Zrotation
			JOINT LeftFoot
			{
				OFFSET -4.081074 -37.707932 -15.979700
				CHANNELS 3 Xrotation Yrotation Zrotation
				JOINT LeftToeBase
				{
					OFFSET 5.346399 -15.068900 20.645000
					CHANNELS 3 Xrotation Yrotation Zrotation
					JOINT LeftToe_End
					{
						OFFSET 2.754700 0.931300 11.300900
						CHANNELS 3 Xrotation Yrotation Zrotation
						End Site
						{
							OFFSET 0.000000 11.669021 0.000000
						}
					}
				}
			}
		}
	}
	JOINT RightUpLeg
	{
		OFFSET -15.569500 -6.655098 0.678600
		CHANNELS 3 Xrotation Yrotation Zrotation
		JOINT RightLeg
		{
			OFFSET -4.081825 -39.591045 13.023800
			CHANNELS 3 Xrotation Yrotation Zrotation
			JOINT RightFoot
			{
				OFFSET 4.081824 -37.707954 -15.979600
				CHANNELS 3 Xrotation Yrotation Zrotation
				JOINT RightToeBase
				{
					OFFSET -5.346400 -15.068900 20.645000
					CHANNELS 3 Xrotation Yrotation Zrotation
					JOINT RightToe_End
					{
						OFFSET -2.754700 0.931300 11.300900
						CHANNELS 3 Xrotation Yrotation Zrotation
						End Site
						{
							OFFSET 0.000000 11.669021 0.000000
						}
					}
				}
			}
		}
	}
}
MOTION
Frames: 6
Frame Time: 0.033333
0.088048 74.392937 -2.133915 -1.661154 -2.985054 0.207709 1.017148 0.746759 -0.173726 3.073219 1.055449 0.668541 3.069588 1.044060 0.698775 1.965745 -0.412266 2.942197 -8.223729 3.343780 -5.916931 0.000000 0.000000 -0.000000 -7.093907 13.268191 42.627105 -84.267056 -26.716044 1.767796 0.000001 -61.005952 -0.000002 -1.218147 -19.191619 6.515934 -6.116587 -3.608371 17.999273 22.080323 28.246003 -7.275495 -0.756322 -16.860252 7.712551 0.000003 0.000003 -0.000000 -2.555532 0.070972 -34.305547 0.219839 1.591424 -15.730467 0.085031 -0.995706 9.764589 0.000000 0.000000 -0.000003 -2.373813 -1.019995 -27.293057 0.280927 1.794047 -17.797451 0.034153 0.632351 -6.183022 -0.000000 0.000000 -0.000002 -1.392677 0.356874 -24.305802 0.369215 2.048663 -20.430207 0.220933 1.595218 -15.769158 -0.000003 0.000001 0.000001 -4.002626 5.324390 -14.459767 0.898031 3.118719 -32.119709 0.116750 1.165035 -11.446192 -0.000001 0.000001 0.000001 -6.345940 -12.351192 -41.069378 -107.596537 26.558193 18.029703 0.000031 73.398681 -0.000028 -9.858342 1.987883 -20.060904 -6.360186 -1.807611 -19.814049 9.430490 6.123114 -10.648968 -3.124438 -18.488810 -6.096599 -0.000000 -0.000001 0.000002 0.496996 4.919449 -2.357779 0.925854 -2.788846 36.725394 0.050941 -0.687701 8.473010 0.000001 0.000000 -0.000001 0.166180 -0.834004 -5.471787 0.787248 -2.592924 33.773421 0.185327 -1.302047 16.201229 0.000002 -0.000002 -0.000001 -0.082765 -5.378415 -2.480469 0.219152 -1.413253 17.628804 0.218725 -1.411883 17.611294 0.000002 0.000003 -0.000001 -1.016556 -8.695223 -9.241975 0.298108 -1.641032 20.590555 0.127651 -1.083999 13.430852 0.000001 -0.000001 -0.000000 -19.977854 -0.540790 33.603527 42.212690 -12.556966 8.719045 -18.947215 0.432098 -26.106820 -1.754673 0.048011 -2.465959 -0.000000 0.000000 -0.000000 -20.562267 9.458484 -25.186164 51.943582 9.771637 -8.472114 -25.690457 0.384575 20.158074 -6.783555 -0.000066 0.088466 0.000000 0.000001 0.000000 
0.170028 75.532204 -1.905830 -1.494243 -2.959231 0.217737 0.848053 0.727031 -0.264948 2.829782 1.029464 0.535254 2.771370 0.995976 0.585859 0.585946 -0.575915 2.678338 -6.962295 2.245583 -6.119700 0.000000 0.000000 -0.000000 -5.916349 12.537067 37.947879 -71.646355 -24.351469 5.034699 -0.000005 -50.630946 -0.000004 -7.834347 -17.659287 8.762768 -3.347306 -5.434688 8.601734 20.835128 26.076317 -5.782846 0.616510 -10.159829 13.353999 0.000002 0.000001 -0.000000 -2.001690 1.698849 -38.935719 0.256685 1.716749 -17.006213 0.027256 -0.565059 5.522859 -0.000003 -0.000000 -0.000002 -2.407274 0.296432 -33.263144 0.305165 1.867881 -18.556593 0.039685 0.681490 -6.665361 -0.000002 -0.000002 -0.000001 -1.542264 0.938772 -28.949081 0.436920 2.221873 -22.247446 0.246152 1.681934 -16.650978 0.000001 -0.000000 0.000000 -4.349505 3.604099 -19.441843 0.898369 3.119298 -32.126222 0.117061 1.166479 -11.460855 0.000002 0.000001 -0.000001 -5.434402 -12.133357 -35.980815 -94.136160 29.317812 13.595084 0.000006 56.855796 0.000001 -18.452456 1.777535 -13.739700 -4.545433 2.230960 -15.567586 12.636037 -5.576344 -7.927104 0.218697 -13.128494 -9.805829 -0.000002 -0.000002 0.000003 -1.108076 4.648542 9.662852 0.958264 -2.831685 37.386120 0.052577 -0.698648 8.609032 -0.000001 0.000002 -0.000003 -0.262982 1.120388 5.086745 0.832160 -2.658762 34.753584 0.197762 -1.344081 16.739359 -0.000001 -0.000003 -0.000001 0.087653 -2.914282 5.577838 0.318565 -1.694466 21.293453 0.227085 -1.437921 17.947101 -0.000000 0.000001 -0.000001 -0.261683 -5.328296 -2.285422 0.431948 -1.960538 24.847690 0.144496 -1.152243 14.294275 0.000000 0.000001 0.000002 -21.379769 -0.715048 33.609185 42.559967 -12.096603 8.677584 -15.152032 -2.393287 -26.294348 -4.817700 0.067481 -2.911217 0.000000 0.000000 0.000000 -22.203729 8.502713 -25.165714 51.790159 10.253136 -8.571089 -21.724704 2.321005 20.451772 -8.398769 -0.009587 1.095104 -0.000000 0.000000 -0.000000 
0.439665 78.028343 -1.493358 -1.117636 -2.886160 0.151659 0.618960 0.661835 -0.228841 2.488470 0.959158 0.443341 2.436925 0.929844 0.486064 -1.118027 -0.742802 2.574942 -5.693572 1.354370 -6.480370 0.000000 0.000000 -0.000000 -5.162382 12.256230 33.120554 -58.992207 -21.696700 7.316920 0.000007 -40.493405 0.000026 -14.783518 -16.894020 9.524104 -0.524017 -7.562941 0.213349 19.756322 23.905452 -4.419063 1.613583 -3.806763 18.362723 -0.000003 -0.000002 0.000001 -1.472599 2.907981 -43.144522 0.294210 1.834935 -18.217390 0.002793 -0.181048 1.766997 -0.000003 -0.000000 0.000001 -2.281276 1.481530 -38.811389 0.342409 1.975301 -19.667214 0.045679 0.730911 -7.151451 0.000000 0.000000 -0.000000 -1.789155 1.243403 -33.172559 0.518883 2.412369 -24.274431 0.273435 1.770575 -17.556499 0.000001 -0.000001 0.000000 -5.001995 2.100978 -23.767276 0.902410 3.125715 -32.200596 0.118075 1.171526 -11.510889 0.000003 0.000000 -0.000000 -4.702882 -12.029185 -30.747753 -79.421665 31.077583 8.066400 0.000005 41.128356 -0.000017 -27.347239 -0.079728 -8.068047 -2.913864 6.307559 -11.879757 15.438102 -15.407061 -5.009760 3.205372 -8.569558 -13.259183 0.000000 -0.000000 0.000000 -2.533294 4.934037 18.386045 1.001632 -2.887479 38.255394 0.054499 -0.711159 8.764210 -0.000000 0.000000 0.000001 -1.557515 3.217174 15.030250 0.883848 -2.731668 35.852592 0.211204 -1.387975 17.303331 -0.000000 0.000001 0.000002 -0.574763 -0.181906 13.381365 0.434207 -1.965399 24.913842 0.235937 -1.465005 18.297095 0.000000 -0.000000 0.000001 -0.359196 -2.136137 4.179055 0.577838 -2.248744 28.818679 0.160700 -1.214084 15.079420 0.000001 0.000001 -0.000000 -24.912174 -0.921637 32.267033 45.058485 -11.181221 8.700547 -7.121421 -4.778116 -21.862957 -7.358834 0.303079 -6.121637 -0.000000 -0.000000 0.000000 -25.136129 7.207806 -24.272261 51.824924 10.799059 -8.697661 -13.299161 4.176480 18.331994 -9.836015 -0.165362 4.533735 -0.000001 -0.000000 0.000000 
0.991252 81.437943 -1.115065 -0.563184 -2.787239 -0.035558 0.435589 0.593347 -0.057970 2.109798 0.872623 0.377199 2.104280 0.870313 0.399809 -3.513346 -0.930540 2.876666 -4.624505 0.986959 -6.983338 -0.000000 0.000000 -0.000000 -4.543340 12.604338 27.798849 -46.527505 -18.074337 8.787871 -0.000006 -32.252078 -0.000004 -20.594793 -16.228728 7.317334 1.676423 -9.352511 -5.616012 18.944409 22.032572 -3.333738 2.042352 0.589981 22.124209 -0.000002 -0.000000 -0.000000 -1.370174 3.328074 -45.856818 0.331841 1.945456 -19.357960 0.000920 0.103978 -1.014566 0.000000 -0.000002 0.000000 -2.045666 2.376453 -42.903782 0.401007 2.132047 -21.302117 0.051505 0.775951 -7.594768 -0.000000 0.000000 0.000000 -2.216368 1.156740 -36.365064 0.612318 2.609496 -26.406929 0.299207 1.849997 -18.372487 0.000000 -0.000001 0.000001 -5.502548 1.306563 -27.206515 0.904891 3.129633 -32.245969 0.118912 1.175579 -11.551346 -0.000000 0.000001 -0.000000 -3.750451 -11.667981 -24.994396 -63.522296 29.975224 1.268401 0.000005 28.884546 0.000000 -35.257262 -2.382087 -4.313720 -1.778259 9.476239 -9.376205 17.014618 -20.337979 -3.445573 4.492868 -5.213947 -14.777633 -0.000000 0.000005 -0.000001 -3.385548 6.875108 20.161542 1.045304 -2.941957 39.114000 0.056549 -0.724355 8.928802 0.000000 0.000000 -0.000001 -3.253001 5.013448 22.372612 0.930732 -2.795341 36.825187 0.225881 -1.434229 17.899540 -0.000001 -0.000001 -0.000000 -1.999798 2.635464 19.960403 0.548879 -2.195307 28.071671 0.244790 -1.491485 18.640119 -0.000001 -0.000000 0.000000 -1.007623 -0.029050 9.338615 0.700484 -2.458340 31.804339 0.172461 -1.256942 15.625183 0.000002 -0.000001 0.000001 -29.520371 -1.095332 30.979583 46.892203 -10.114958 6.193160 6.926299 -4.049126 -16.623243 -8.755177 1.137647 -12.002804 -0.000001 0.000001 -0.000000 -28.614516 5.539380 -23.277049 51.021055 10.201139 -7.596719 -1.099851 5.144244 14.573399 -10.572362 -0.752695 9.763336 -0.000000 -0.000000 -0.000000 
1.199592 86.031525 -1.347043 0.106316 -2.664924 -0.053650 0.445472 0.570934 -0.097854 1.849651 0.845520 0.295552 1.870624 0.865598 0.307705 -6.255623 -1.132555 3.532024 -4.077284 1.134889 -7.319996 0.000000 0.000000 0.000000 -3.393580 12.550167 21.913938 -35.295849 -12.639532 9.062753 -0.000006 -27.614689 0.000008 -23.484516 -15.395071 3.261312 2.693648 -10.185680 -8.086898 18.429660 20.748966 -2.629864 1.938287 1.808001 24.362866 0.000006 0.000001 -0.000001 -1.759083 3.015596 -46.512994 0.368415 2.046537 -20.408149 0.007648 0.299581 -2.924641 -0.000000 0.000000 -0.000000 -1.756593 2.934664 -44.827583 0.467200 2.294434 -23.015719 0.056219 0.810537 -7.935265 0.000001 -0.000002 -0.000001 -2.665918 0.903350 -38.315527 0.694999 2.769605 -28.168778 0.319122 1.908887 -18.979690 0.000001 -0.000001 -0.000000 -5.399005 1.449735 -30.216098 0.895592 3.114876 -32.075135 0.118888 1.175478 -11.550274 0.000001 0.000000 0.000002 -2.238759 -10.139297 -18.659793 -48.983047 24.464821 -4.483603 0.000004 22.312592 0.000004 -40.285122 -3.344854 -2.627995 -1.350119 10.966118 -8.378381 17.071042 -20.347945 -3.669451 3.195780 -3.544594 -13.394599 -0.000001 -0.000006 0.000003 -2.594055 10.031453 17.044812 1.062711 -2.963208 39.451866 0.058814 -0.738587 9.105383 -0.000001 0.000000 -0.000000 -4.315410 5.948423 25.739442 0.953350 -2.825230 37.286279 0.241693 -1.482304 18.521030 -0.000000 0.000000 -0.000001 -3.582665 4.936969 24.323760 0.639065 -2.356523 30.342630 0.253082 -1.515839 18.955998 0.000001 0.000000 -0.000000 -1.708385 0.428076 12.836308 0.765342 -2.559883 33.286001 0.178392 -1.277923 15.892781 -0.000001 0.000000 0.000001 -31.026182 0.129085 29.960860 47.769404 -7.589996 3.258124 8.004523 -0.979970 -16.013903 -2.317897 0.028933 -1.933312 -0.000001 0.000000 0.000002 -30.647646 2.997034 -21.921991 49.608309 9.445002 -5.275443 3.744501 4.117434 12.509380 -6.489983 -0.182492 4.849940 0.000002 0.000000 0.000000 
1.331886 91.400406 -1.955330 0.811415 -2.526544 -0.026546 0.651394 0.622664 -0.241310 1.799985 0.914025 0.174901 1.799248 0.928950 0.187307 -8.223731 -1.297973 4.129906 -4.282317 1.333051 -7.115978 -0.000000 0.000000 0.000000 -1.563998 10.537480 15.974627 -26.330816 -5.396516 7.335273 0.000009 -26.893993 0.000001 -23.231797 -15.211613 -0.045006 2.516618 -10.027570 -7.648653 18.192293 20.073856 -2.278671 1.860088 0.103699 25.208596 0.000001 -0.000000 0.000000 -2.245308 2.413645 -45.663718 0.398486 2.125544 -21.234071 0.017853 0.457560 -4.469594 -0.000003 0.000000 -0.000002 -1.449393 3.242272 -44.789454 0.508703 2.389709 -24.031431 0.059395 0.833025 -8.156993 0.000000 0.000000 0.000001 -2.883222 0.815918 -39.326771 0.741413 2.854468 -29.114863 0.333431 1.949978 -19.404648 0.000001 -0.000001 -0.000001 -4.678387 2.193242 -33.457077 0.871488 3.076133 -31.628741 0.119191 1.176954 -11.565003 -0.000004 0.000003 -0.000002 -0.439409 -6.916221 -12.263746 -38.552624 15.592451 -6.510729 -0.000002 21.394007 -0.000003 -41.170748 -2.573453 -1.755083 -1.568246 10.861708 -8.675997 16.834425 -18.932234 -4.115458 -0.530363 -4.496493 -9.845129 0.000003 -0.000002 0.000002 -0.833889 12.025723 16.216020 1.048026 -2.945302 39.167136 0.061856 -0.757381 9.339123 0.000002 -0.000000 -0.000000 -4.210993 5.738303 25.697477 0.945682 -2.815159 37.130671 0.258111 -1.530383 19.145254 -0.000004 -0.000000 -0.000000 -4.499402 6.153703 26.150916 0.693908 -2.447712 31.650683 0.261107 -1.539009 19.257341 0.000001 -0.000001 0.000000 -2.294237 -0.497975 15.099747 0.766062 -2.560959 33.301926 0.181301 -1.288170 16.023817 0.000002 0.000001 -0.000000 -30.544995 2.626611 25.836367 47.081344 -7.616444 1.498437 3.424022 1.015069 -13.729234 -0.508561 -0.000000 0.000004 0.000001 -0.000000 0.000000 -30.837338 0.029812 -18.848950 48.754259 9.330991 -3.401101 -0.379097 2.111361 10.791896 -3.406510 -0.000004 -0.000001 -0.000000 -0.000000 -0.000001 
